<svg width="51" height="69" viewBox="0 0 51 69" fill="none" xmlns="http://www.w3.org/2000/svg">
<path d="M2.15417 16.1706L24.9938 2.47949L48.0721 16.1706V51.2197L25.3121 66.0843L2.15417 51.1415V16.1706Z" fill="#FEFEFE"/>
<path d="M8.56 21.3568L24.8297 11.4363L41.2694 21.3568V46.7534L25.0564 57.5242L8.56 46.6967V21.3568Z" fill="url(#paint0_linear_38_2)"/>
<path d="M24.4115 1.73301C24.5574 1.64184 24.7426 1.64258 24.8878 1.7349L48.5661 16.7934C48.695 16.8754 48.7731 17.0176 48.7731 17.1703V50.8709C48.7731 51.0173 48.7013 51.1544 48.581 51.2379L25.5669 67.2026C25.4155 67.3076 25.2153 67.3089 25.0626 67.2059L1.53668 51.3379C1.41359 51.2548 1.33981 51.1161 1.33981 50.9676V16.398C1.33981 16.244 1.41914 16.1008 1.54974 16.0192L24.4115 1.73301Z" stroke="black" stroke-width="2.67961"/>
<path d="M24.635 10.1097C24.7703 10.0275 24.9401 10.0274 25.0755 10.1093L25.7294 9.02795L25.0755 10.1093L42.2872 20.5173C42.4145 20.5942 42.4923 20.7321 42.4923 20.8809V47.1359C42.4923 47.2781 42.4212 47.4109 42.3028 47.4896L25.2692 58.8309C25.1275 58.9253 24.9431 58.9259 24.8007 58.8326L7.49584 47.4837C7.37608 47.4051 7.30394 47.2715 7.30394 47.1283V20.8785C7.30394 20.7301 7.38138 20.5924 7.50823 20.5154L24.635 10.1097Z" stroke="black" stroke-width="2.54953"/>
<rect x="3.12622" y="35.8303" width="2.23301" height="2.23301" fill="black"/>
<rect x="44.4369" y="35.8303" width="2.23301" height="2.23301" fill="black"/>
<path fill-rule="evenodd" clip-rule="evenodd" d="M25.2423 18.6323V22.1428L18.0598 26.7863L37.4999 39.065V43.6081L37.2389 43.4514L37.4549 43.6081L25.2423 50.9005V50.8529L13.1417 43.3937L16.9672 41.5404L25.3365 46.7489L33.9893 41.5004L13.1417 28.9837V26.7784H13.1417V26.1391L25.2423 18.6323ZM25.2423 18.6324V22.1428L34.3845 27.9486L37.3549 26.1483L25.2423 18.6324Z" fill="white"/>
<defs>
<linearGradient id="paint0_linear_38_2" x1="31.5756" y1="15.0077" x2="17.2334" y2="54.8032" gradientUnits="userSpaceOnUse">
<stop stop-color="#59FF28"/>
<stop offset="1" stop-color="#0C2517"/>
</linearGradient>
</defs>
</svg>
